<svg xmlns="http://www.w3.org/2000/svg" viewBox="0 0 1024 1024">
  <defs>
    <linearGradient id="tile" x1="0" y1="0" x2="0" y2="1">
      <stop offset="0%" stop-color="#3E4552"/>
      <stop offset="100%" stop-color="#1B1F26"/>
    </linearGradient>
  </defs>
  <rect x="92" y="92" width="840" height="840" rx="188" fill="url(#tile)"/>
  <g transform="translate(202.6,226.4) scale(34)">
    
    <!-- lower layer -->
    <rect x="4.05" y="8.10" width="7.80" height="5.00" rx="1.25"
      transform="rotate(-30 4.05 8.10)" fill="white" fill-opacity="0.62"/>
    <rect x="4.35" y="7.60" width="7.80" height="5.00" rx="1.25"
      transform="rotate(-30 4.35 7.60)" fill="none" stroke="white" stroke-opacity="0.40" stroke-width="0.45"/>
    <!-- middle layer -->
    <rect x="4.35" y="5.60" width="7.80" height="5.00" rx="1.25"
      transform="rotate(-30 4.35 5.60)" fill="white" fill-opacity="0.78"/>
    <rect x="4.65" y="5.10" width="7.80" height="5.00" rx="1.25"
      transform="rotate(-30 4.65 5.10)" fill="none" stroke="white" stroke-opacity="0.46" stroke-width="0.45"/>
    <!-- upper layer -->
    <rect x="4.65" y="3.10" width="7.80" height="5.00" rx="1.25"
      transform="rotate(-30 4.65 3.10)" fill="white" fill-opacity="0.94"/>
    <rect x="4.95" y="2.60" width="7.80" height="5.00" rx="1.25"
      transform="rotate(-30 4.95 2.60)" fill="none" stroke="white" stroke-opacity="0.52" stroke-width="0.45"/>
    <circle cx="12.6" cy="12.2" r="1.5" fill="white"/>
  
  </g>
</svg>